# xmcd CD database file
#
# Track frame offsets:
#	150
#	16732
#	38257
#	64230
#	88745
#	108472
#	128850
#	152202
#	184725
#	202910
#
# Disc length: 2901 seconds
#
# Revision: 0
# Processed by: cddbd v1.4PL0 Copyright (c) Steve Scherf et al.
# Submitted via: CDex 1.40Release
#
DISCID=790b530a
DTITLE=Dave Specter and Barkin' Bill Smith - Bluebird Blues with Ronnie Earl
DYEAR=1991
DGENRE=Blues
TTITLE0=Things I'd Do for You
TTITLE1=Tell Me What's the Reason
TTITLE2=Bluebird Blues
TTITLE3=Wind Chill
TTITLE4=Get Me While I'm Free
TTITLE5=Buzz Me
TTITLE6=Lie to Me
TTITLE7=Railroad Station Blues
TTITLE8=Our Course Is Run
TTITLE9=Take a Walk With Me
EXTD=YEAR: 1991 ID3G: 0
EXTT0=
EXTT1=
EXTT2=
EXTT3=
EXTT4=
EXTT5=
EXTT6=
EXTT7=
EXTT8=
EXTT9=
PLAYORDER=
